<svg   width="100%" height="100%" viewBox="0 0 111 20" fill="none" xmlns="http://www.w3.org/2000/svg"><g clip-path="url(#clip0_1204_208)"><path d="M37.8741 4.93271H35.3169V17.5887H43.0817V15.2491H37.8741V4.93271Z" fill="#FFF7EB"></path><path d="M50.1984 8.98715H47.6411V17.605H50.1984V8.98715Z" fill="#FFF7EB"></path><path d="M60.3624 9.82932C59.2808 9.32461 58.3472 8.88869 58.3472 8.05252C58.3472 7.2357 59.1421 6.94337 59.8866 6.94337C60.6513 6.94337 61.5375 7.3535 62.1993 8.01383L62.294 8.10841L63.5504 6.18115L63.4923 6.11881C63.1048 5.70654 61.7002 4.63651 59.8698 4.63651C57.7931 4.63651 55.6931 5.84368 55.6931 8.15097C55.6931 10.2923 57.3974 11.1397 58.901 11.8868C60.1497 12.508 61.23 13.0446 61.23 14.1731C61.23 15.0557 60.5609 15.5621 59.394 15.5621C57.8534 15.5621 56.6852 14.6387 56.2542 14.2414L56.1646 14.1589L54.8203 16.0075L54.8827 16.0728C55.6005 16.8247 57.4185 17.8836 59.2127 17.8836C60.6173 17.8836 61.8178 17.4967 62.6841 16.7615C63.4915 16.0775 63.9358 15.1464 63.9358 14.1391C63.9337 11.4956 61.9534 10.5718 60.3624 9.82932Z" fill="#FFF7EB"></path><path d="M68.1167 7.27227H71.7918V17.605H74.349V7.27227H78.0404V4.94949H68.1167V7.27227Z" fill="#FFF7EB"></path><path d="M92.0843 12.7273L82.9227 4.45209L82.8892 17.605H85.4468L85.4145 10.1358L94.5921 18.1966L94.6261 4.93272H92.068L92.0843 12.7273Z" fill="#FFF7EB"></path><path d="M104.956 12.6963C106.873 12.1486 107.845 10.8637 107.845 8.87493C107.845 7.3406 107.183 6.23962 105.876 5.60207C104.954 5.15153 103.724 4.93271 102.117 4.93271H99.4375V17.605H101.995V12.965H102.089L106.769 17.605H110.323L104.956 12.6963ZM105.156 8.8917C105.156 10.0748 104.368 10.6255 102.677 10.6255H101.995V7.27225H102.743C103.844 7.27225 105.156 7.5534 105.156 8.8917Z" fill="#FFF7EB"></path><path d="M48.9199 3.92975C48.5553 3.92966 48.1989 4.03754 47.8957 4.23974C47.5925 4.44193 47.3561 4.72936 47.2166 5.06567C47.077 5.40198 47.0405 5.77206 47.1116 6.12911C47.1827 6.48616 47.3583 6.81413 47.6161 7.07154C47.8739 7.32895 48.2024 7.50425 48.56 7.57525C48.9176 7.64624 49.2883 7.60976 49.6251 7.47041C49.962 7.33106 50.2499 7.0951 50.4524 6.79238C50.6549 6.48966 50.7629 6.13378 50.7629 5.76974C50.7622 5.28195 50.5678 4.81434 50.2223 4.46942C49.8769 4.12451 49.4085 3.93043 48.9199 3.92975Z" fill="#FFF7EB"></path><path d="M13.3659 9.21051C12.2158 8.99285 11.0263 9.24024 10.0589 9.89826C9.09154 10.5563 8.42561 11.571 8.20761 12.7192C7.98961 13.8675 8.23739 15.0551 8.89645 16.021C9.55551 16.9868 10.5719 17.6517 11.7219 17.8693C11.995 17.9216 12.2725 17.9483 12.5505 17.9491C13.6488 17.947 14.7069 17.5361 15.518 16.7969C16.3291 16.0576 16.8351 15.0429 16.9371 13.9511C17.0391 12.8594 16.7298 11.7688 16.0696 10.8925C15.4093 10.0162 14.4457 9.41711 13.3667 9.21222L13.3659 9.21051Z" fill="#FFF7EB"></path><path d="M26.8433 11.0485C26.3361 8.71948 25.2449 6.55715 23.6721 4.76417C22.901 3.88727 22.0256 3.10767 21.0653 2.44269C20.111 1.7892 19.0801 1.255 17.9956 0.852048C14.7713 -0.34633 11.2113 -0.275943 8.03704 1.04894C7.01445 1.47961 6.05024 2.03714 5.16719 2.70837C4.29159 3.37031 3.50313 4.1399 2.8205 4.9989C2.14219 5.84581 1.57376 6.77488 1.12872 7.76405C0.244798 9.71624 -0.128685 11.8604 0.0432155 13.9959C0.198352 16.0351 0.857754 18.004 1.96234 19.7261C1.98354 19.7593 2.01677 19.7829 2.05506 19.7921C2.09335 19.8014 2.13373 19.7954 2.16773 19.7756L2.19227 19.761C2.20774 19.7518 2.21906 19.737 2.22387 19.7197C2.22869 19.7024 2.22662 19.6839 2.21811 19.6681C1.29309 17.9124 0.824768 15.9528 0.856162 13.9693C0.879251 12.012 1.39957 10.0926 2.36838 8.39085C3.31388 6.72967 4.65965 5.33033 6.2837 4.31965C7.86484 3.33415 9.67075 2.76567 11.5321 2.66753C13.3229 2.56096 15.1115 2.90852 16.7316 3.67786C18.3516 4.4472 19.7503 5.61331 20.7975 7.0676C21.8055 8.45904 22.4426 10.0835 22.649 11.7884C22.8564 13.4447 22.6386 15.1264 22.016 16.6755C21.9863 16.749 21.9596 16.826 21.9385 16.8978C21.7995 17.3673 21.8067 17.8678 21.9589 18.3332C22.1112 18.7986 22.4015 19.2068 22.7913 19.5037C23.1811 19.8007 23.6521 19.9725 24.1418 19.9963C24.6316 20.0202 25.117 19.8949 25.5339 19.6371C26.05 19.3113 26.4278 18.807 26.5949 18.2206C27.2832 15.8893 27.3687 13.4218 26.8433 11.0485Z" fill="#FFF7EB"></path></g><defs><clipPath id="clip0_1204_208"><rect width="110.323" height="20" fill="white"></rect></clipPath></defs></svg>